# xmcd
#
# Track frame offsets:
# 150
# 23619
# 57430
# 79467
# 102145
# 132017
# 155035
# 177448
# 200929
# 220242
#
# Disc length: 3409 seconds
#
# Revision: 0
# Processed by: cddbd v1.5.1PL0 Copyright (c) Steve Scherf et al.
# Submitted via: Audion 3.0.2 (http://www.panic.com/audion/)
#
DISCID=8f0d4f0a
DTITLE=Various Artist - Dan gian di dom
DYEAR=1900
DGENRE=
TTITLE0=Tien la tien
TTITLE1=Ghen
TTITLE2=Bia om
TTITLE3=Duyen lo lang
TTITLE4=Hoi xuan
TTITLE5=Ngau hung ly qua cau
TTITLE6=Lambada
TTITLE7=Tien la tien 2
TTITLE8=Ly ngua o
TTITLE9=Len deo
EXTD=
EXTT0=
EXTT1=
EXTT2=
EXTT3=
EXTT4=
EXTT5=
EXTT6=
EXTT7=
EXTT8=
EXTT9=
PLAYORDER=
